<svg xmlns="http://www.w3.org/2000/svg" width="1024" height="1024" viewBox="0 0 1024 1024" fill="none">
  <defs>
    <radialGradient id="crowGlow" cx="0.5" cy="0.5" r="0.5">
      <stop offset="0" stop-color="#9ef1ff" stop-opacity="0.9" />
      <stop offset="0.6" stop-color="#5ad5e8" stop-opacity="0.4" />
      <stop offset="1" stop-color="#5ad5e8" stop-opacity="0" />
    </radialGradient>
    <linearGradient id="panelGrad" x1="0" y1="0" x2="0" y2="1">
      <stop offset="0" stop-color="#14121d" />
      <stop offset="1" stop-color="#0f1118" />
    </linearGradient>
    <linearGradient id="buttonGrad" x1="0" y1="0" x2="0" y2="1">
      <stop offset="0" stop-color="#1c1426" />
      <stop offset="1" stop-color="#0f1118" />
    </linearGradient>
    <radialGradient id="emberGrad" cx="0.5" cy="0.5" r="0.5">
      <stop offset="0" stop-color="#ffb06a" stop-opacity="0.9" />
      <stop offset="0.6" stop-color="#ff6b3a" stop-opacity="0.6" />
      <stop offset="1" stop-color="#ff2d2d" stop-opacity="0" />
    </radialGradient>
    <radialGradient id="dustGrad" cx="0.5" cy="0.5" r="0.5">
      <stop offset="0" stop-color="#c4d1dc" stop-opacity="0.4" />
      <stop offset="1" stop-color="#c4d1dc" stop-opacity="0" />
    </radialGradient>
    <linearGradient id="medalBronze" x1="0" y1="0" x2="1" y2="1">
      <stop offset="0" stop-color="#c47c42" />
      <stop offset="1" stop-color="#6f3e1e" />
    </linearGradient>
    <linearGradient id="medalSilver" x1="0" y1="0" x2="1" y2="1">
      <stop offset="0" stop-color="#e5ebf0" />
      <stop offset="1" stop-color="#7b8a96" />
    </linearGradient>
    <linearGradient id="medalGold" x1="0" y1="0" x2="1" y2="1">
      <stop offset="0" stop-color="#f7d774" />
      <stop offset="1" stop-color="#b8771e" />
    </linearGradient>
    <linearGradient id="medalVoid" x1="0" y1="0" x2="1" y2="1">
      <stop offset="0" stop-color="#3b2a4f" />
      <stop offset="1" stop-color="#0a0b12" />
    </linearGradient>
  </defs>

  <rect width="1024" height="1024" fill="none" />

  <!-- Crow idle (0,0) -->
  <g transform="translate(0 0)">
    <circle cx="60" cy="16" r="10" stroke="#5ad5e8" stroke-width="1.2" opacity="0.45" />
    <ellipse cx="38" cy="36" rx="18" ry="11" fill="#0a0b12" stroke="#1a2230" stroke-width="1" />
    <circle cx="58" cy="22" r="9" fill="#0a0b12" stroke="#1a2230" stroke-width="1" />
    <polygon points="24,34 8,40 24,46" fill="#0a0b12" />
    <polygon points="66,22 84,26 66,30" fill="#161922" />
    <path d="M38 30 L18 22 L12 34 L32 40 Z" fill="#0b0c12" />
    <path d="M28 32 L18 28" stroke="#2c5f70" stroke-width="1.4" stroke-linecap="round" opacity="0.8" />
    <path d="M52 16 L60 16 L62 26 L56 30 L50 26 Z" fill="#d8d2c6" opacity="0.85" />
    <circle cx="56" cy="26" r="3.6" fill="#5ad5e8" opacity="0.35" />
    <circle cx="56" cy="26" r="1.8" fill="#bff6ff" />
  </g>

  <!-- Crow flap 0 (96,0) -->
  <g transform="translate(96 0)">
    <circle cx="60" cy="16" r="10" stroke="#5ad5e8" stroke-width="1.2" opacity="0.45" />
    <ellipse cx="38" cy="36" rx="18" ry="11" fill="#0a0b12" stroke="#1a2230" stroke-width="1" />
    <circle cx="58" cy="22" r="9" fill="#0a0b12" stroke="#1a2230" stroke-width="1" />
    <polygon points="24,34 8,40 24,46" fill="#0a0b12" />
    <polygon points="66,22 84,26 66,30" fill="#161922" />
    <path d="M38 26 L16 4 L12 24 L32 38 Z" fill="#0b0c12" />
    <path d="M26 24 L16 18" stroke="#2c5f70" stroke-width="1.4" stroke-linecap="round" opacity="0.8" />
    <path d="M52 16 L60 16 L62 26 L56 30 L50 26 Z" fill="#d8d2c6" opacity="0.85" />
    <circle cx="56" cy="26" r="3.6" fill="#5ad5e8" opacity="0.35" />
    <circle cx="56" cy="26" r="1.8" fill="#bff6ff" />
  </g>

  <!-- Crow flap 1 (192,0) -->
  <g transform="translate(192 0)">
    <circle cx="60" cy="16" r="10" stroke="#5ad5e8" stroke-width="1.2" opacity="0.45" />
    <ellipse cx="38" cy="36" rx="18" ry="11" fill="#0a0b12" stroke="#1a2230" stroke-width="1" />
    <circle cx="58" cy="22" r="9" fill="#0a0b12" stroke="#1a2230" stroke-width="1" />
    <polygon points="24,34 8,40 24,46" fill="#0a0b12" />
    <polygon points="66,22 84,26 66,30" fill="#161922" />
    <path d="M38 28 L14 12 L12 28 L32 40 Z" fill="#0b0c12" />
    <path d="M26 28 L16 24" stroke="#2c5f70" stroke-width="1.4" stroke-linecap="round" opacity="0.8" />
    <path d="M52 16 L60 16 L62 26 L56 30 L50 26 Z" fill="#d8d2c6" opacity="0.85" />
    <circle cx="56" cy="26" r="3.6" fill="#5ad5e8" opacity="0.35" />
    <circle cx="56" cy="26" r="1.8" fill="#bff6ff" />
  </g>

  <!-- Crow flap 2 (288,0) -->
  <g transform="translate(288 0)">
    <circle cx="60" cy="16" r="10" stroke="#5ad5e8" stroke-width="1.2" opacity="0.45" />
    <ellipse cx="38" cy="36" rx="18" ry="11" fill="#0a0b12" stroke="#1a2230" stroke-width="1" />
    <circle cx="58" cy="22" r="9" fill="#0a0b12" stroke="#1a2230" stroke-width="1" />
    <polygon points="24,34 8,40 24,46" fill="#0a0b12" />
    <polygon points="66,22 84,26 66,30" fill="#161922" />
    <path d="M38 34 L12 32 L18 46 L36 40 Z" fill="#0b0c12" />
    <path d="M26 36 L16 36" stroke="#2c5f70" stroke-width="1.4" stroke-linecap="round" opacity="0.8" />
    <path d="M52 16 L60 16 L62 26 L56 30 L50 26 Z" fill="#d8d2c6" opacity="0.85" />
    <circle cx="56" cy="26" r="3.6" fill="#5ad5e8" opacity="0.35" />
    <circle cx="56" cy="26" r="1.8" fill="#bff6ff" />
  </g>

  <!-- Crow flap 3 (384,0) -->
  <g transform="translate(384 0)">
    <circle cx="60" cy="16" r="10" stroke="#5ad5e8" stroke-width="1.2" opacity="0.45" />
    <ellipse cx="38" cy="36" rx="18" ry="11" fill="#0a0b12" stroke="#1a2230" stroke-width="1" />
    <circle cx="58" cy="22" r="9" fill="#0a0b12" stroke="#1a2230" stroke-width="1" />
    <polygon points="24,34 8,40 24,46" fill="#0a0b12" />
    <polygon points="66,22 84,26 66,30" fill="#161922" />
    <path d="M38 30 L16 20 L12 32 L32 40 Z" fill="#0b0c12" />
    <path d="M26 30 L16 28" stroke="#2c5f70" stroke-width="1.4" stroke-linecap="round" opacity="0.8" />
    <path d="M52 16 L60 16 L62 26 L56 30 L50 26 Z" fill="#d8d2c6" opacity="0.85" />
    <circle cx="56" cy="26" r="3.6" fill="#5ad5e8" opacity="0.35" />
    <circle cx="56" cy="26" r="1.8" fill="#bff6ff" />
  </g>

  <!-- Crow dead (480,0) -->
  <g transform="translate(480 0)">
    <circle cx="60" cy="16" r="10" stroke="#5ad5e8" stroke-width="1.2" opacity="0.2" />
    <ellipse cx="38" cy="36" rx="18" ry="11" fill="#0a0b12" stroke="#1a2230" stroke-width="1" />
    <circle cx="58" cy="22" r="9" fill="#0a0b12" stroke="#1a2230" stroke-width="1" />
    <polygon points="24,34 8,40 24,46" fill="#0a0b12" />
    <polygon points="66,22 84,26 66,30" fill="#161922" />
    <path d="M38 30 L18 22 L12 34 L32 40 Z" fill="#0b0c12" />
    <path d="M52 16 L60 16 L62 26 L56 30 L50 26 Z" fill="#d0c8bc" opacity="0.7" />
    <path d="M54 22 L58 26" stroke="#3b444a" stroke-width="1.6" stroke-linecap="round" />
    <path d="M58 22 L54 26" stroke="#3b444a" stroke-width="1.6" stroke-linecap="round" />
  </g>

  <!-- Crow glow (576,0) -->
  <g transform="translate(576 0)">
    <circle cx="16" cy="16" r="16" fill="url(#crowGlow)" />
  </g>

  <!-- Icons and medals -->
  <g transform="translate(608 0)">
    <path d="M12 4 A8 8 0 1 1 4 12" stroke="#9ef1ff" stroke-width="2" fill="none" stroke-linecap="round" />
    <polygon points="4,8 2,14 8,12" fill="#9ef1ff" />
  </g>
  <g transform="translate(640 0)">
    <polygon points="3,9 9,6 9,18 3,15" fill="#9ef1ff" />
    <path d="M12 8 L16 12 L12 16" stroke="#9ef1ff" stroke-width="2" fill="none" stroke-linecap="round" />
  </g>
  <g transform="translate(664 0)">
    <polygon points="3,9 9,6 9,18 3,15" fill="#9ef1ff" />
    <path d="M13 7 L21 19" stroke="#ff4fa3" stroke-width="2" stroke-linecap="round" />
  </g>
  <g transform="translate(688 0)">
    <path d="M4 12 C6 8 10 8 12 12 C14 16 18 16 20 12" stroke="#9ef1ff" stroke-width="2" fill="none" stroke-linecap="round" />
  </g>
  <g transform="translate(712 0)">
    <path d="M4 12 C6 8 10 8 12 12 C14 16 18 16 20 12" stroke="#9ef1ff" stroke-width="2" fill="none" stroke-linecap="round" />
    <path d="M6 6 L18 18" stroke="#ff4fa3" stroke-width="2" stroke-linecap="round" />
  </g>

  <g transform="translate(736 0)">
    <circle cx="24" cy="24" r="22" fill="url(#medalBronze)" stroke="#2a1b33" stroke-width="2" />
    <path d="M18 18 L30 18 L32 28 L24 34 L16 28 Z" fill="#2a1b33" opacity="0.8" />
  </g>
  <g transform="translate(784 0)">
    <circle cx="24" cy="24" r="22" fill="url(#medalSilver)" stroke="#2a1b33" stroke-width="2" />
    <path d="M18 18 L30 18 L32 28 L24 34 L16 28 Z" fill="#2a1b33" opacity="0.8" />
  </g>
  <g transform="translate(832 0)">
    <circle cx="24" cy="24" r="22" fill="url(#medalGold)" stroke="#2a1b33" stroke-width="2" />
    <path d="M18 18 L30 18 L32 28 L24 34 L16 28 Z" fill="#2a1b33" opacity="0.8" />
  </g>
  <g transform="translate(880 0)">
    <circle cx="24" cy="24" r="22" fill="url(#medalVoid)" stroke="#2a1b33" stroke-width="2" />
    <circle cx="24" cy="24" r="10" fill="#5ad5e8" opacity="0.25" />
  </g>

  <!-- Obstacles row (y=80) -->
  <g transform="translate(0 80)">
    <path d="M8 0 L18 20 L12 44 L22 80 L14 120 L24 160 L16 200 L26 240 L18 280 L28 320 L64 320 L72 290 L62 250 L70 210 L60 170 L68 130 L56 90 L64 50 L54 20 L64 0 Z" fill="#15131f" />
    <path d="M24 10 L30 40 L26 80 L32 120 L28 160 L34 200 L30 250 L36 320" stroke="#3b2a52" stroke-width="2" opacity="0.9" />
    <path d="M12 60 L2 52 L6 72 Z" fill="#241a32" />
    <path d="M52 110 L64 98 L60 124 Z" fill="#241a32" />
  </g>
  <g transform="translate(96 80)">
    <path d="M6 0 L16 22 L10 48 L18 90 L12 140 L20 190 L14 240 L22 280 L16 310 L28 320 L66 320 L74 290 L66 250 L72 210 L64 170 L70 130 L58 90 L66 50 L56 22 L66 0 Z" fill="#15131f" />
    <path d="M26 12 L32 48 L26 92 L34 130 L28 170 L36 210 L30 260 L38 320" stroke="#3b2a52" stroke-width="2" opacity="0.9" />
    <path d="M10 90 L0 84 L4 104 Z" fill="#241a32" />
    <path d="M56 150 L70 138 L66 168 Z" fill="#241a32" />
  </g>
  <g transform="translate(192 80)">
    <path d="M10 0 L22 26 L14 56 L24 96 L16 140 L26 180 L18 220 L28 260 L20 300 L32 320 L68 320 L76 288 L68 246 L74 206 L66 166 L72 128 L60 86 L68 52 L58 24 L66 0 Z" fill="#15131f" />
    <path d="M28 16 L36 56 L30 96 L38 140 L32 180 L40 220 L34 270 L42 320" stroke="#3b2a52" stroke-width="2" opacity="0.9" />
    <path d="M12 130 L2 122 L6 144 Z" fill="#241a32" />
    <path d="M58 210 L70 196 L66 224 Z" fill="#241a32" />
  </g>

  <g transform="translate(288 80)">
    <path d="M8 0 L18 28 L12 56 L22 92 L14 130 L24 166 L16 206 L26 244 L18 280 L30 320 L66 320 L74 286 L66 246 L72 208 L64 168 L70 130 L58 90 L66 54 L56 26 L66 0 Z" fill="#15131f" />
    <path d="M26 14 L32 50 L26 94 L34 136 L28 176 L36 216 L30 264 L38 320" stroke="#3b2a52" stroke-width="2" opacity="0.9" />
    <circle cx="16" cy="260" r="3" fill="#ff4fa3" opacity="0.7" />
  </g>
  <g transform="translate(384 80)">
    <path d="M6 0 L18 24 L10 52 L20 88 L12 128 L22 164 L14 206 L24 244 L16 282 L28 320 L64 320 L72 290 L64 250 L70 210 L62 172 L68 132 L56 92 L64 54 L54 26 L64 0 Z" fill="#15131f" />
    <path d="M24 12 L30 46 L24 90 L32 130 L26 170 L34 210 L28 260 L36 320" stroke="#3b2a52" stroke-width="2" opacity="0.9" />
    <circle cx="52" cy="230" r="3" fill="#ff4fa3" opacity="0.7" />
  </g>
  <g transform="translate(480 80)">
    <path d="M10 0 L20 26 L12 54 L22 92 L14 134 L24 170 L16 210 L26 246 L18 284 L30 320 L66 320 L74 288 L66 246 L72 208 L64 170 L70 132 L58 92 L66 54 L56 26 L66 0 Z" fill="#15131f" />
    <path d="M28 16 L34 52 L28 96 L36 138 L30 178 L38 218 L32 268 L40 320" stroke="#3b2a52" stroke-width="2" opacity="0.9" />
    <circle cx="18" cy="200" r="3" fill="#ff4fa3" opacity="0.7" />
  </g>

  <!-- UI panels row (y=420) -->
  <g transform="translate(0 420)">
    <rect x="0" y="0" width="320" height="180" rx="14" ry="14" fill="url(#panelGrad)" stroke="#48c8d8" stroke-width="2" />
    <rect x="10" y="10" width="300" height="160" rx="12" ry="12" stroke="#2c5f70" stroke-width="1" opacity="0.5" fill="none" />
  </g>
  <g transform="translate(336 420)">
    <rect x="0" y="0" width="280" height="120" rx="12" ry="12" fill="url(#panelGrad)" stroke="#48c8d8" stroke-width="2" />
    <rect x="8" y="8" width="264" height="104" rx="10" ry="10" stroke="#2c5f70" stroke-width="1" opacity="0.5" fill="none" />
  </g>
  <g transform="translate(632 420)">
    <rect x="0" y="0" width="150" height="54" rx="10" ry="10" fill="url(#panelGrad)" stroke="#48c8d8" stroke-width="2" />
    <path d="M10 14 L140 14" stroke="#2c5f70" stroke-width="1" opacity="0.5" />
  </g>
  <g transform="translate(632 480)">
    <rect x="0" y="0" width="180" height="52" rx="12" ry="12" fill="url(#buttonGrad)" stroke="#48c8d8" stroke-width="2" />
    <rect x="8" y="8" width="164" height="36" rx="10" ry="10" stroke="#2c5f70" stroke-width="1" opacity="0.5" fill="none" />
  </g>

  <!-- Particles row (y=620) -->
  <g transform="translate(0 620)">
    <circle cx="8" cy="8" r="8" fill="url(#emberGrad)" />
  </g>
  <g transform="translate(24 620)">
    <circle cx="8" cy="8" r="8" fill="url(#dustGrad)" />
  </g>
  <g transform="translate(48 620)">
    <path d="M2 10 C6 2 14 2 14 10 C10 14 6 14 2 10 Z" fill="#6b7c86" opacity="0.7" />
  </g>
</svg>
