<svg xmlns="http://www.w3.org/2000/svg" width="360" height="80" viewBox="0 0 360 80" fill="none">
  <rect width="360" height="80" fill="#0b0c12" />
  <path d="M0 20 L20 28 L40 24 L60 30 L80 26 L100 34 L120 30 L140 36 L160 32 L180 38 L200 34 L220 40 L240 36 L260 42 L280 38 L300 44 L320 40 L340 46 L360 42 L360 80 L0 80 Z" fill="#121520" />
  <path d="M24 24 L16 52" stroke="#2a1b33" stroke-width="2" stroke-linecap="round" />
  <path d="M60 28 L52 62" stroke="#2a1b33" stroke-width="2" stroke-linecap="round" />
  <path d="M94 30 L84 68" stroke="#2a1b33" stroke-width="2" stroke-linecap="round" />
  <path d="M128 32 L118 70" stroke="#2a1b33" stroke-width="2" stroke-linecap="round" />
  <path d="M166 34 L152 74" stroke="#2a1b33" stroke-width="2" stroke-linecap="round" />
  <path d="M204 36 L194 72" stroke="#2a1b33" stroke-width="2" stroke-linecap="round" />
  <path d="M242 38 L230 76" stroke="#2a1b33" stroke-width="2" stroke-linecap="round" />
  <path d="M280 40 L270 74" stroke="#2a1b33" stroke-width="2" stroke-linecap="round" />
  <path d="M316 42 L306 70" stroke="#2a1b33" stroke-width="2" stroke-linecap="round" />
  <circle cx="72" cy="54" r="3" fill="#ff4fa3" opacity="0.6" />
  <circle cx="210" cy="58" r="2" fill="#ff4fa3" opacity="0.5" />
  <circle cx="300" cy="60" r="2" fill="#ff4fa3" opacity="0.5" />
</svg>
