<svg xmlns="http://www.w3.org/2000/svg" width="64" height="48" viewBox="0 0 64 48" fill="none">
  <rect width="64" height="48" fill="none" />
  <circle cx="40" cy="14" r="8" stroke="#6fe6f2" stroke-width="1.2" opacity="0.2" />
  <circle cx="43" cy="14" r="6" fill="#0a0b10" opacity="0.6" />
  <path d="M14 30 L2 34 L14 38 Z" fill="#0a0b10" />
  <ellipse cx="28" cy="30" rx="14" ry="9" fill="#0a0b10" stroke="#1a2230" stroke-width="1" />
  <path d="M28 26 L14 18 L10 30 L22 34 Z" fill="#0b0c12" />
  <path d="M22 24 L14 28" stroke="#2c5f70" stroke-width="1.4" stroke-linecap="round" opacity="0.4" />
  <circle cx="41" cy="20" r="7" fill="#0a0b10" stroke="#1a2230" stroke-width="1" />
  <path d="M46 20 L54 22 L46 24 Z" fill="#161922" />
  <path d="M38 16 L44 16 L45 22 L41 25 L37 22 Z" fill="#c7c1b7" opacity="0.65" />
  <circle cx="40" cy="20" r="2.2" fill="#6b7c83" />
  <path d="M38.6 18.6 L41.4 21.4" stroke="#3b444a" stroke-width="1.2" stroke-linecap="round" />
  <path d="M41.4 18.6 L38.6 21.4" stroke="#3b444a" stroke-width="1.2" stroke-linecap="round" />
</svg>
