<svg xmlns="http://www.w3.org/2000/svg" viewBox="0 0 24 24" width="24" height="24" fill="none">
  <!-- Speaker MUTED icon -->
  <path d="M16.5 12c0-1.77-1.02-3.29-2.5-4.03v2.21l2.45 2.45c.03-.2.05-.41.05-.63z" fill="#9fb2c1" opacity="0.7"/>
  <path d="M19 12c0 .94-.2 1.82-.54 2.64l1.51 1.51A9 9 0 0 0 21 12a9 9 0 0 0-7-8.77v2.06c2.89.86 5 3.54 5 6.71z" fill="#9fb2c1" opacity="0.5"/>
  <path d="M4.27 3L3 4.27 7.73 9H3v6h4l5 5v-6.73l4.25 4.25c-.67.52-1.42.93-2.25 1.18v2.06A8.99 8.99 0 0 0 17.73 18L19.73 20 21 18.73l-18-18zM12 4L9.91 6.09 12 8.18V4z" fill="#9ef1ff" opacity="0.85"/>
</svg>
