<svg xmlns="http://www.w3.org/2000/svg" viewBox="0 0 24 24" width="24" height="24" fill="none">
  <!-- Settings / gear icon — obsidian-glass + teal rim style -->
  <!-- Outer gear ring -->
  <path d="M12 8a4 4 0 1 0 0 8 4 4 0 0 0 0-8z" fill="#9ef1ff" opacity="0.9"/>
  <path fill-rule="evenodd" clip-rule="evenodd"
    d="M12 2a1 1 0 0 1 .98.804l.3 1.518a7.04 7.04 0 0 1 1.26.522l1.29-.87a1 1 0 0 1 1.26.126l1.412 1.412a1 1 0 0 1 .126 1.26l-.87 1.29c.2.4.378.82.522 1.26l1.518.3A1 1 0 0 1 22 10.5v2a1 1 0 0 1-.804.98l-1.518.3a7.04 7.04 0 0 1-.522 1.26l.87 1.29a1 1 0 0 1-.126 1.26l-1.412 1.412a1 1 0 0 1-1.26.126l-1.29-.87a7.04 7.04 0 0 1-1.26.522l-.3 1.518A1 1 0 0 1 12.5 22h-2a1 1 0 0 1-.98-.804l-.3-1.518a7.04 7.04 0 0 1-1.26-.522l-1.29.87a1 1 0 0 1-1.26-.126L3.998 18.488a1 1 0 0 1-.126-1.26l.87-1.29a7.04 7.04 0 0 1-.522-1.26l-1.518-.3A1 1 0 0 1 2 13.5v-2a1 1 0 0 1 .804-.98l1.518-.3a7.04 7.04 0 0 1 .522-1.26l-.87-1.29a1 1 0 0 1 .126-1.26L5.512 4.998a1 1 0 0 1 1.26-.126l1.29.87a7.04 7.04 0 0 1 1.26-.522l.3-1.518A1 1 0 0 1 10.5 2h2zm-2 2-.22 1.108a1 1 0 0 1-.71.764 5.04 5.04 0 0 0-1.566.65 1 1 0 0 1-1.063.038L5.28 5.695 4.695 6.28l.865 1.16a1 1 0 0 1 .038 1.063 5.04 5.04 0 0 0-.65 1.566 1 1 0 0 1-.764.71L3.076 11H3v2l1.184.221a1 1 0 0 1 .764.71 5.04 5.04 0 0 0 .65 1.566 1 1 0 0 1-.038 1.063l-.865 1.16.585.585 1.16-.865a1 1 0 0 1 1.063-.038 5.04 5.04 0 0 0 1.566.65 1 1 0 0 1 .71.764L10 20.924V21h2l.221-1.184a1 1 0 0 1 .71-.764 5.04 5.04 0 0 0 1.566-.65 1 1 0 0 1 1.063.038l1.16.865.585-.585-.865-1.16a1 1 0 0 1-.038-1.063 5.04 5.04 0 0 0 .65-1.566 1 1 0 0 1 .764-.71L20.924 13H21v-2l-1.184-.221a1 1 0 0 1-.764-.71 5.04 5.04 0 0 0-.65-1.566 1 1 0 0 1 .038-1.063l.865-1.16-.585-.585-1.16.865a1 1 0 0 1-1.063.038 5.04 5.04 0 0 0-1.566-.65 1 1 0 0 1-.71-.764L14 3.076V3h-2l-.001.001z"
    fill="#48c8d8"/>
</svg>
