<svg xmlns="http://www.w3.org/2000/svg" viewBox="0 0 96 64" width="96" height="64">
  <!--
    Crow — flap frame 0. Wing raised ~45° above horizontal.
    Down-stroke just beginning. Body tilts slightly upward.
  -->
  <defs>
    <linearGradient id="body-grad" x1="0.3" y1="0" x2="0.7" y2="1">
      <stop offset="0%"   stop-color="#2a1f3d" stop-opacity="0.6"/>
      <stop offset="40%"  stop-color="#120e1c" stop-opacity="1"/>
      <stop offset="100%" stop-color="#0a0810" stop-opacity="1"/>
    </linearGradient>
    <linearGradient id="sheen" x1="0" y1="0" x2="0" y2="1">
      <stop offset="0%"  stop-color="#3d2e58" stop-opacity="0.5"/>
      <stop offset="60%" stop-color="#120e1c" stop-opacity="0"/>
    </linearGradient>
    <radialGradient id="eye-glow" cx="50%" cy="50%" r="50%">
      <stop offset="0%"  stop-color="#c8f4ff"/>
      <stop offset="60%" stop-color="#9ef1ff"/>
      <stop offset="100%" stop-color="#48c8d8" stop-opacity="0.4"/>
    </radialGradient>
    <linearGradient id="wing-grad" x1="0" y1="0" x2="0.5" y2="1">
      <stop offset="0%" stop-color="#2a1f40"/>
      <stop offset="100%" stop-color="#160e26"/>
    </linearGradient>
  </defs>

  <!-- Tail feathers -->
  <path d="M 20,38 Q 4,30 2,20" stroke="#1a1528" stroke-width="3.5" stroke-linecap="round" fill="none" opacity="0.9"/>
  <path d="M 20,40 Q 3,37 2,31" stroke="#1a1528" stroke-width="4"   stroke-linecap="round" fill="none" opacity="0.9"/>
  <path d="M 20,42 Q 4,48 3,54" stroke="#1a1528" stroke-width="3.5" stroke-linecap="round" fill="none" opacity="0.9"/>
  <ellipse cx="18" cy="40" rx="7" ry="5" fill="#120e1c" transform="rotate(-5,18,40)"/>

  <!-- Body (slightly tilted nose-up for power stroke) -->
  <ellipse cx="44" cy="38" rx="26" ry="15" fill="url(#body-grad)" transform="rotate(-8,44,38)"/>
  <ellipse cx="44" cy="33" rx="20" ry="8" fill="url(#sheen)"/>

  <!-- ── Wing RAISED (45° up) ───────────────────────────────────────── -->
  <!-- Wing sweeping upward — primary feathers spread out above body -->
  <!-- Wing leading edge arc -->
  <path d="M 30,34 Q 36,20 48,10 Q 58,6 64,12 Q 56,22 44,28 Q 36,32 30,34 Z"
        fill="url(#wing-grad)"/>
  <!-- Primary feather tips (top of raised wing) — teal accents -->
  <path d="M 48,10 Q 52,4 56,7"  stroke="#48c8d8" stroke-width="1" fill="none" opacity="0.6"/>
  <path d="M 54,8  Q 58,2 62,6"  stroke="#48c8d8" stroke-width="1" fill="none" opacity="0.5"/>
  <path d="M 60,10 Q 64,5 67,10" stroke="#48c8d8" stroke-width="1" fill="none" opacity="0.45"/>
  <!-- Wing feather lines (quill structure) -->
  <path d="M 32,32 Q 40,22 50,12" stroke="#2a1f40" stroke-width="0.8" fill="none" opacity="0.6"/>
  <path d="M 36,30 Q 44,20 54,11" stroke="#2a1f40" stroke-width="0.8" fill="none" opacity="0.5"/>
  <path d="M 40,28 Q 48,18 58,9"  stroke="#2a1f40" stroke-width="0.8" fill="none" opacity="0.4"/>
  <!-- Wing sheen -->
  <path d="M 32,32 Q 44,18 60,10" stroke="#3d2e58" stroke-width="1.5" fill="none" opacity="0.3"/>

  <!-- Neck + Head -->
  <path d="M 62,32 Q 66,26 72,24 Q 66,34 62,38 Z" fill="url(#body-grad)"/>
  <circle cx="72" cy="22" r="13" fill="url(#body-grad)"/>
  <ellipse cx="70" cy="17" rx="7" ry="4" fill="#3d2e58" opacity="0.35"/>

  <!-- Beak -->
  <path d="M 82,19 L 93,21.5 L 83,25 Z" fill="#2e2438"/>
  <path d="M 82,23 L 90,24.5 L 82,26.5 Z" fill="#241c30"/>
  <line x1="82" y1="19" x2="93" y2="21.5" stroke="#3d2e58" stroke-width="0.7" opacity="0.6"/>

  <!-- Eye -->
  <circle cx="75" cy="19" r="5.5" fill="#48c8d8" opacity="0.15"/>
  <circle cx="75" cy="19" r="4.5" fill="#08050f"/>
  <circle cx="75" cy="19" r="4" fill="url(#eye-glow)"/>
  <circle cx="75.5" cy="19" r="2.2" fill="#04020a"/>
  <circle cx="73.5" cy="17.5" r="1.1" fill="#ffffff" opacity="0.85"/>
  <circle cx="76.5" cy="20.5" r="0.6" fill="#ffffff" opacity="0.4"/>
</svg>
