<svg xmlns="http://www.w3.org/2000/svg" viewBox="0 0 80 320" width="80" height="320">
  <!--
    Gate (obstacle) — TOP variant. 80×320.
    Stone column hanging from top; cap at the BOTTOM edge (y=320).
    Three variants differ only in surface detail / moss density.
    Base gradient: obsidian stone with faint teal moss highlights.
  -->
  <defs>
    <linearGradient id="stone-main" x1="0" y1="0" x2="1" y2="0">
      <stop offset="0%"   stop-color="#0d1018"/>
      <stop offset="20%"  stop-color="#161c28"/>
      <stop offset="50%"  stop-color="#1e2535"/>
      <stop offset="80%"  stop-color="#141a24"/>
      <stop offset="100%" stop-color="#0a0e16"/>
    </linearGradient>
    <linearGradient id="stone-edge-l" x1="0" y1="0" x2="1" y2="0">
      <stop offset="0%"   stop-color="#0a0d14" stop-opacity="0.9"/>
      <stop offset="100%" stop-color="#0a0d14" stop-opacity="0"/>
    </linearGradient>
    <linearGradient id="stone-edge-r" x1="0" y1="0" x2="1" y2="0">
      <stop offset="0%"   stop-color="#0a0d14" stop-opacity="0"/>
      <stop offset="100%" stop-color="#07090f" stop-opacity="0.9"/>
    </linearGradient>
    <linearGradient id="cap-grad" x1="0" y1="0" x2="0" y2="1">
      <stop offset="0%"   stop-color="#242e44"/>
      <stop offset="40%"  stop-color="#1a2234"/>
      <stop offset="100%" stop-color="#0d1220"/>
    </linearGradient>
    <linearGradient id="teal-moss" x1="0" y1="0" x2="0" y2="1">
      <stop offset="0%"   stop-color="#48c8d8" stop-opacity="0"/>
      <stop offset="60%"  stop-color="#48c8d8" stop-opacity="0.08"/>
      <stop offset="100%" stop-color="#9ef1ff" stop-opacity="0.15"/>
    </linearGradient>
    <linearGradient id="highlight" x1="0" y1="0" x2="1" y2="0">
      <stop offset="0%"   stop-color="#ffffff" stop-opacity="0"/>
      <stop offset="30%"  stop-color="#ffffff" stop-opacity="0.06"/>
      <stop offset="60%"  stop-color="#ffffff" stop-opacity="0.03"/>
      <stop offset="100%" stop-color="#ffffff" stop-opacity="0"/>
    </linearGradient>
  </defs>

  <!-- ── Main column shaft ─────────────────────────────────────────────── -->
  <rect x="4" y="0" width="72" height="296" fill="url(#stone-main)"/>

  <!-- Left/right edge darkening -->
  <rect x="4" y="0" width="18" height="296" fill="url(#stone-edge-l)"/>
  <rect x="58" y="0" width="18" height="296" fill="url(#stone-edge-r)"/>

  <!-- Centre highlight stripe — worn stone sheen -->
  <rect x="4" y="0" width="72" height="296" fill="url(#highlight)"/>

  <!-- Teal-moss drip overlay (top-of-column = moss source) -->
  <rect x="4" y="0" width="72" height="296" fill="url(#teal-moss)"/>

  <!-- Horizontal stone-block seam lines — carved masonry look -->
  <line x1="4" y1="40"  x2="76" y2="40"  stroke="#0a0d14" stroke-width="1.5" opacity="0.5"/>
  <line x1="4" y1="80"  x2="76" y2="80"  stroke="#0a0d14" stroke-width="1.5" opacity="0.5"/>
  <line x1="4" y1="120" x2="76" y2="120" stroke="#0a0d14" stroke-width="1.5" opacity="0.45"/>
  <line x1="4" y1="160" x2="76" y2="160" stroke="#0a0d14" stroke-width="1.5" opacity="0.4"/>
  <line x1="4" y1="200" x2="76" y2="200" stroke="#0a0d14" stroke-width="1.5" opacity="0.35"/>
  <line x1="4" y1="240" x2="76" y2="240" stroke="#0a0d14" stroke-width="1.5" opacity="0.3"/>
  <line x1="4" y1="280" x2="76" y2="280" stroke="#0a0d14" stroke-width="1.5" opacity="0.3"/>

  <!-- Subtle vertical crack — adds age/texture -->
  <path d="M 38,20 Q 36,60 39,120 Q 37,180 38,240" stroke="#08090f" stroke-width="0.8" fill="none" opacity="0.4"/>

  <!-- Teal moss drips at bottom of column (near cap) -->
  <path d="M 12,275 Q 11,285 13,296" stroke="#48c8d8" stroke-width="1" fill="none" opacity="0.3"/>
  <path d="M 28,280 Q 27,290 29,296" stroke="#48c8d8" stroke-width="0.8" fill="none" opacity="0.25"/>
  <path d="M 55,278 Q 54,288 56,296" stroke="#48c8d8" stroke-width="0.8" fill="none" opacity="0.25"/>
  <path d="M 66,282 Q 66,292 67,296" stroke="#9ef1ff" stroke-width="0.7" fill="none" opacity="0.2"/>

  <!-- ── Cap (bottom face of the top gate) ─────────────────────────────── -->
  <!-- Main cap block — 80×24, overhangs by 4px on each side -->
  <rect x="0" y="296" width="80" height="24" rx="2" fill="url(#cap-grad)"/>

  <!-- Cap top bevel highlight -->
  <rect x="0" y="296" width="80" height="3" fill="#ffffff" opacity="0.07"/>
  <!-- Cap left/right edge darkening -->
  <rect x="0"  y="296" width="6"  height="24" fill="#07090f" opacity="0.6"/>
  <rect x="74" y="296" width="6"  height="24" fill="#07090f" opacity="0.6"/>
  <!-- Teal rim glow on cap underside -->
  <rect x="0" y="316" width="80" height="4" fill="#48c8d8" opacity="0.25"/>
  <rect x="0" y="318" width="80" height="2" fill="#9ef1ff" opacity="0.15"/>

  <!-- Cap engraving lines -->
  <line x1="0" y1="304" x2="80" y2="304" stroke="#0d1220" stroke-width="1" opacity="0.5"/>
  <line x1="0" y1="312" x2="80" y2="312" stroke="#0d1220" stroke-width="1" opacity="0.4"/>
</svg>
