<svg xmlns="http://www.w3.org/2000/svg" viewBox="0 0 80 320" width="80" height="320">
  <!--
    Gate (obstacle) — BOTTOM variant. 80×320.
    Stone column rising from bottom; cap at the TOP edge (y=0).
    Moss/drips flow downward from cap; lichen on lower reaches.
  -->
  <defs>
    <linearGradient id="stone-main" x1="0" y1="0" x2="1" y2="0">
      <stop offset="0%"   stop-color="#0d1018"/>
      <stop offset="20%"  stop-color="#161c28"/>
      <stop offset="50%"  stop-color="#1e2535"/>
      <stop offset="80%"  stop-color="#141a24"/>
      <stop offset="100%" stop-color="#0a0e16"/>
    </linearGradient>
    <linearGradient id="stone-edge-l" x1="0" y1="0" x2="1" y2="0">
      <stop offset="0%"   stop-color="#0a0d14" stop-opacity="0.9"/>
      <stop offset="100%" stop-color="#0a0d14" stop-opacity="0"/>
    </linearGradient>
    <linearGradient id="stone-edge-r" x1="0" y1="0" x2="1" y2="0">
      <stop offset="0%"   stop-color="#0a0d14" stop-opacity="0"/>
      <stop offset="100%" stop-color="#07090f" stop-opacity="0.9"/>
    </linearGradient>
    <linearGradient id="cap-grad" x1="0" y1="0" x2="0" y2="1">
      <stop offset="0%"   stop-color="#0d1220"/>
      <stop offset="60%"  stop-color="#1a2234"/>
      <stop offset="100%" stop-color="#242e44"/>
    </linearGradient>
    <linearGradient id="teal-moss" x1="0" y1="1" x2="0" y2="0">
      <stop offset="0%"   stop-color="#48c8d8" stop-opacity="0"/>
      <stop offset="60%"  stop-color="#48c8d8" stop-opacity="0.07"/>
      <stop offset="100%" stop-color="#9ef1ff" stop-opacity="0.12"/>
    </linearGradient>
    <linearGradient id="highlight" x1="0" y1="0" x2="1" y2="0">
      <stop offset="0%"   stop-color="#ffffff" stop-opacity="0"/>
      <stop offset="30%"  stop-color="#ffffff" stop-opacity="0.06"/>
      <stop offset="60%"  stop-color="#ffffff" stop-opacity="0.03"/>
      <stop offset="100%" stop-color="#ffffff" stop-opacity="0"/>
    </linearGradient>
  </defs>

  <!-- ── Cap (top face of the bottom gate) ─────────────────────────────── -->
  <rect x="0" y="0" width="80" height="24" rx="2" fill="url(#cap-grad)"/>
  <!-- Cap underside teal rim -->
  <rect x="0" y="0"  width="80" height="2" fill="#9ef1ff" opacity="0.15"/>
  <rect x="0" y="2"  width="80" height="4" fill="#48c8d8" opacity="0.25"/>
  <!-- Cap left/right edge darkening -->
  <rect x="0"  y="0" width="6"  height="24" fill="#07090f" opacity="0.6"/>
  <rect x="74" y="0" width="6"  height="24" fill="#07090f" opacity="0.6"/>
  <!-- Cap engraving lines -->
  <line x1="0" y1="8"  x2="80" y2="8"  stroke="#0d1220" stroke-width="1" opacity="0.5"/>
  <line x1="0" y1="16" x2="80" y2="16" stroke="#0d1220" stroke-width="1" opacity="0.4"/>
  <!-- Cap bottom bevel -->
  <rect x="0" y="21" width="80" height="3" fill="#ffffff" opacity="0.04"/>

  <!-- ── Main column shaft ─────────────────────────────────────────────── -->
  <rect x="4" y="24" width="72" height="296" fill="url(#stone-main)"/>

  <!-- Left/right edge darkening -->
  <rect x="4" y="24" width="18" height="296" fill="url(#stone-edge-l)"/>
  <rect x="58" y="24" width="18" height="296" fill="url(#stone-edge-r)"/>

  <!-- Centre highlight -->
  <rect x="4" y="24" width="72" height="296" fill="url(#highlight)"/>

  <!-- Teal-moss overlay (drips from top) -->
  <rect x="4" y="24" width="72" height="296" fill="url(#teal-moss)"/>

  <!-- Horizontal stone-block seam lines -->
  <line x1="4" y1="64"  x2="76" y2="64"  stroke="#0a0d14" stroke-width="1.5" opacity="0.5"/>
  <line x1="4" y1="104" x2="76" y2="104" stroke="#0a0d14" stroke-width="1.5" opacity="0.45"/>
  <line x1="4" y1="144" x2="76" y2="144" stroke="#0a0d14" stroke-width="1.5" opacity="0.4"/>
  <line x1="4" y1="184" x2="76" y2="184" stroke="#0a0d14" stroke-width="1.5" opacity="0.35"/>
  <line x1="4" y1="224" x2="76" y2="224" stroke="#0a0d14" stroke-width="1.5" opacity="0.3"/>
  <line x1="4" y1="264" x2="76" y2="264" stroke="#0a0d14" stroke-width="1.5" opacity="0.3"/>

  <!-- Subtle vertical crack -->
  <path d="M 42,40 Q 44,100 41,180 Q 43,240 42,300" stroke="#08090f" stroke-width="0.8" fill="none" opacity="0.4"/>

  <!-- Teal moss drips from cap -->
  <path d="M 14,24 Q 13,36 15,48" stroke="#48c8d8" stroke-width="1"   fill="none" opacity="0.3"/>
  <path d="M 30,24 Q 29,34 31,44" stroke="#48c8d8" stroke-width="0.8" fill="none" opacity="0.25"/>
  <path d="M 52,24 Q 51,38 53,50" stroke="#48c8d8" stroke-width="0.8" fill="none" opacity="0.25"/>
  <path d="M 65,24 Q 65,36 66,46" stroke="#9ef1ff" stroke-width="0.7" fill="none" opacity="0.2"/>
</svg>
