<svg xmlns="http://www.w3.org/2000/svg" width="1024" height="640" viewBox="0 0 1024 640">
  <defs>
    <linearGradient id="treemid_fade" x1="0" y1="0" x2="0" y2="1">
      <stop offset="0%"   stop-color="#050a07" stop-opacity="0"/>
      <stop offset="20%"  stop-color="#050a07" stop-opacity="0.2"/>
      <stop offset="55%"  stop-color="#040808" stop-opacity="0.65"/>
      <stop offset="100%" stop-color="#030606" stop-opacity="0.88"/>
    </linearGradient>
    <linearGradient id="treemid_fog" x1="0" y1="0" x2="0" y2="1">
      <stop offset="0%"  stop-color="#7aacc0" stop-opacity="0"/>
      <stop offset="55%" stop-color="#7aacc0" stop-opacity="0.08"/>
      <stop offset="100%" stop-color="#98c0d4" stop-opacity="0.2"/>
    </linearGradient>
    <!-- Violet biolume accent at tree roots -->
    <radialGradient id="rootglow1" cx="25%" cy="90%" r="18%">
      <stop offset="0%"  stop-color="#7a30cc" stop-opacity="0.22"/>
      <stop offset="100%" stop-color="#7a30cc" stop-opacity="0"/>
    </radialGradient>
    <radialGradient id="rootglow2" cx="62%" cy="92%" r="16%">
      <stop offset="0%"  stop-color="#4dffcc" stop-opacity="0.15"/>
      <stop offset="100%" stop-color="#4dffcc" stop-opacity="0"/>
    </radialGradient>
    <radialGradient id="rootglow3" cx="82%" cy="88%" r="14%">
      <stop offset="0%"  stop-color="#7a30cc" stop-opacity="0.18"/>
      <stop offset="100%" stop-color="#7a30cc" stop-opacity="0"/>
    </radialGradient>
  </defs>

  <!-- Wider, heavier tree silhouettes with some mangrove character -->

  <!-- Tree cluster 1 (left) — large cypress grouping -->
  <polygon points="0,640 0,340 12,320 20,298 28,280 38,262 48,248 60,268 70,252 80,265 90,248 100,262 110,248 118,258 124,272 130,285 134,295 138,310 140,325 142,640"
        fill="#050a07" opacity="0.92"/>
  <!-- Roots spread -->
  <polygon points="-5,640 0,580 8,565 20,558 35,562 45,568 55,558 65,562 75,568 85,558 90,575 85,590 70,600 50,608 20,615 0,618"
        fill="#040808" opacity="0.85"/>

  <!-- Hanging moss / draped branches cluster 1 -->
  <path d="M30,300 Q22,340 18,390 Q25,350 32,310 Z" fill="#040808" opacity="0.5"/>
  <path d="M70,270 Q65,320 60,380 Q68,330 74,280 Z" fill="#040808" opacity="0.45"/>
  <path d="M100,260 Q96,315 92,378 Q100,325 106,268 Z" fill="#040808" opacity="0.5"/>

  <!-- Tree cluster 2 -->
  <polygon points="155,640 160,308 168,285 176,262 185,242 195,225 205,240 215,225 225,240 232,258 238,275 244,292 248,308 250,640"
        fill="#060c08" opacity="0.9"/>
  <polygon points="150,640 155,565 165,550 180,545 195,548 205,555 215,548 225,554 235,548 245,562 240,580 225,592 200,600 170,606 150,610"
        fill="#040808" opacity="0.82"/>
  <path d="M185,250 Q178,305 172,368 Q180,315 188,258 Z" fill="#040808" opacity="0.5"/>
  <path d="M215,238 Q210,295 205,360 Q213,308 218,248 Z" fill="#040808" opacity="0.45"/>

  <!-- Tree cluster 3 — taller, thinner -->
  <polygon points="292,640 296,278 302,254 308,232 315,212 322,196 330,212 338,196 345,212 350,230 354,248 358,268 360,640"
        fill="#050a07" opacity="0.88"/>
  <polygon points="288,640 292,555 300,538 315,533 328,537 340,532 350,540 358,552 350,572 330,585 305,593 285,598"
        fill="#040808" opacity="0.8"/>

  <!-- Tree cluster 4 -->
  <polygon points="382,640 387,318 393,295 400,272 408,250 416,230 425,248 434,230 442,248 449,268 454,288 458,308 460,640"
        fill="#060c08" opacity="0.92"/>
  <polygon points="378,640 382,562 390,548 405,542 418,546 430,542 440,548 450,555 448,572 432,584 405,592 382,598"
        fill="#040808" opacity="0.82"/>
  <path d="M408,255 Q400,312 395,378 Q402,322 410,262 Z" fill="#040808" opacity="0.5"/>

  <!-- Tree cluster 5 (tall, imposing center-left) -->
  <polygon points="490,640 494,262 500,238 506,215 513,194 520,175 528,194 536,175 543,194 548,215 552,238 555,262 558,640"
        fill="#050a07" opacity="0.92"/>
  <polygon points="485,640 490,560 498,542 515,536 528,540 540,536 550,544 556,558 548,578 528,590 500,598 485,604"
        fill="#040808" opacity="0.85"/>
  <path d="M513,198 Q505,260 500,328 Q508,272 516,208 Z" fill="#040808" opacity="0.52"/>
  <path d="M530,182 Q523,242 518,312 Q527,255 534,192 Z" fill="#040808" opacity="0.48"/>

  <!-- Tree cluster 6 -->
  <polygon points="582,640 586,302 592,278 599,255 607,234 615,215 623,234 631,215 638,234 643,255 647,278 650,302 652,640"
        fill="#060c08" opacity="0.9"/>
  <polygon points="578,640 582,568 590,552 605,546 618,550 628,546 638,552 648,560 644,578 625,590 598,598 578,604"
        fill="#040808" opacity="0.82"/>

  <!-- Tree cluster 7 -->
  <polygon points="672,640 677,285 683,262 690,240 697,218 705,200 713,218 720,200 727,218 732,238 736,258 740,278 742,640"
        fill="#050a07" opacity="0.88"/>
  <polygon points="668,640 672,558 680,542 695,536 708,540 720,536 730,542 740,552 735,570 718,582 692,590 668,596"
        fill="#040808" opacity="0.8"/>
  <path d="M697,222 Q690,282 685,352 Q693,298 700,232 Z" fill="#040808" opacity="0.5"/>

  <!-- Tree cluster 8 -->
  <polygon points="762,640 766,295 772,272 778,250 785,228 792,210 800,228 808,210 815,228 820,248 824,268 828,290 830,640"
        fill="#060c08" opacity="0.9"/>
  <polygon points="758,640 762,562 770,546 785,540 798,544 810,540 820,546 828,555 824,572 808,584 782,592 758,598"
        fill="#040808" opacity="0.82"/>

  <!-- Tree cluster 9 -->
  <polygon points="852,640 856,308 862,284 868,260 875,238 882,218 890,238 898,218 905,238 910,258 914,278 918,298 920,640"
        fill="#050a07" opacity="0.92"/>
  <polygon points="848,640 852,565 860,548 875,542 888,546 900,542 910,548 920,558 915,576 898,588 870,596 848,602"
        fill="#040808" opacity="0.85"/>

  <!-- Tree cluster 10 (right edge) -->
  <polygon points="945,640 950,278 956,254 963,232 970,210 978,192 986,210 994,192 1001,210 1006,232 1010,254 1013,278 1015,640"
        fill="#060c08" opacity="0.9"/>
  <polygon points="940,640 945,560 953,542 968,536 980,540 992,536 1002,542 1012,552 1008,570 990,582 962,590 940,596"
        fill="#040808" opacity="0.82"/>
  <path d="M970,215 Q963,275 958,345 Q965,290 972,225 Z" fill="#040808" opacity="0.5"/>

  <!-- Right overhang -->
  <polygon points="1010,640 1015,278 1020,255 1024,238 1024,640"
        fill="#050a07" opacity="0.88"/>

  <!-- Bioluminescent root glow accents -->
  <rect width="1024" height="640" fill="url(#rootglow1)"/>
  <rect width="1024" height="640" fill="url(#rootglow2)"/>
  <rect width="1024" height="640" fill="url(#rootglow3)"/>

  <!-- Atmospheric overlay -->
  <rect width="1024" height="640" fill="url(#treemid_fade)"/>
  <!-- Fog at base -->
  <rect x="0" y="500" width="1024" height="140" fill="url(#treemid_fog)"/>
</svg>
